<?xml version="1.0" encoding="utf-8"?>
<svg width="468" height="379" viewBox="0 0 468 379" xmlns="http://www.w3.org/2000/svg">
<rect id="frame" x="0" y="0" width="468" height="379" fill="#f7f7f7" stroke="none" stroke-width="0"/>

<!-- Association FOLLOWS -->
<g>
	<line x1="174" y1="236" x2="174" y2="127" stroke="#de77ae" stroke-width="2"/>
	<text x="147" y="194" fill="#4d9221" font-family="Verdana" font-size="12">1,N</text>
	<line x1="174" y1="43" x2="174" y2="127" stroke="#de77ae" stroke-width="2"/>
	<text x="179" y="94" fill="#4d9221" font-family="Verdana" font-size="12">1,1</text>
	<g>
		<path d="M197 102 a14 14 90 0 1 14 14 V127 h-74 V116 a14 14 90 0 1 14 -14" fill="#f1b6da" stroke="#f1b6da" stroke-width="0"/>
		<path d="M211 127 v11 a14 14 90 0 1 -14 14 H151 a14 14 90 0 1 -14 -14 V127 H74" fill="#fde0ef" stroke="#fde0ef" stroke-width="0"/>
		<rect x="137" y="102" width="74" height="50" fill="none" rx="14" stroke="#de77ae" stroke-width="2"/>
		<line x1="137" y1="127" x2="211" y2="127" stroke="#de77ae" stroke-width="1"/>
		<text x="144" y="119.75" fill="#000" font-family="Verdana" font-size="12">FOLLOWS</text>
	</g>
</g>

<!-- Association CREATE -->
<g>
	<line x1="309" y1="236" x2="309" y2="127" stroke="#de77ae" stroke-width="2"/>
	<text x="314" y="169" fill="#4d9221" font-family="Verdana" font-size="12">0,N</text>
	<line x1="174" y1="236" x2="309" y2="127" stroke="#de77ae" stroke-width="2"/>
	<text x="196.12" y="194" fill="#4d9221" font-family="Verdana" font-size="12">1,1</text>
	<g>
		<path d="M327 102 a14 14 90 0 1 14 14 V127 h-64 V116 a14 14 90 0 1 14 -14" fill="#f1b6da" stroke="#f1b6da" stroke-width="0"/>
		<path d="M341 127 v11 a14 14 90 0 1 -14 14 H291 a14 14 90 0 1 -14 -14 V127 H64" fill="#fde0ef" stroke="#fde0ef" stroke-width="0"/>
		<rect x="277" y="102" width="64" height="50" fill="none" rx="14" stroke="#de77ae" stroke-width="2"/>
		<line x1="277" y1="127" x2="341" y2="127" stroke="#de77ae" stroke-width="1"/>
		<text x="285" y="119.75" fill="#000" font-family="Verdana" font-size="12">CREATE</text>
	</g>
</g>

<!-- Association HAS -->
<g>
	<line x1="174" y1="236" x2="49" y2="236" stroke="#de77ae" stroke-width="2"/>
	<text x="84" y="253" fill="#4d9221" font-family="Verdana" font-size="12">1,N</text>
	<line x1="49" y1="127" x2="49" y2="236" stroke="#de77ae" stroke-width="2"/>
	<text x="54" y="178" fill="#4d9221" font-family="Verdana" font-size="12">1,N</text>
	<g>
		<path d="M55 211 a14 14 90 0 1 14 14 V236 h-40 V225 a14 14 90 0 1 14 -14" fill="#f1b6da" stroke="#f1b6da" stroke-width="0"/>
		<path d="M69 236 v11 a14 14 90 0 1 -14 14 H43 a14 14 90 0 1 -14 -14 V236 H40" fill="#fde0ef" stroke="#fde0ef" stroke-width="0"/>
		<rect x="29" y="211" width="40" height="50" fill="none" rx="14" stroke="#de77ae" stroke-width="2"/>
		<line x1="29" y1="236" x2="69" y2="236" stroke="#de77ae" stroke-width="1"/>
		<text x="36" y="228.75" fill="#000" font-family="Verdana" font-size="12">HAS</text>
	</g>
</g>

<!-- Association GENERATE -->
<g>
	<line x1="309" y1="236" x2="419" y2="236" stroke="#de77ae" stroke-width="2"/>
	<text x="352" y="253" fill="#4d9221" font-family="Verdana" font-size="12">0,N</text>
	<line x1="419" y1="345" x2="419" y2="236" stroke="#de77ae" stroke-width="2"/>
	<text x="424" y="312" fill="#4d9221" font-family="Verdana" font-size="12">1,1</text>
	<g>
		<path d="M445 211 a14 14 90 0 1 14 14 V236 h-80 V225 a14 14 90 0 1 14 -14" fill="#f1b6da" stroke="#f1b6da" stroke-width="0"/>
		<path d="M459 236 v11 a14 14 90 0 1 -14 14 H393 a14 14 90 0 1 -14 -14 V236 H80" fill="#fde0ef" stroke="#fde0ef" stroke-width="0"/>
		<rect x="379" y="211" width="80" height="50" fill="none" rx="14" stroke="#de77ae" stroke-width="2"/>
		<line x1="379" y1="236" x2="459" y2="236" stroke="#de77ae" stroke-width="1"/>
		<text x="386" y="228.75" fill="#000" font-family="Verdana" font-size="12">GENERATE</text>
	</g>
</g>

<!-- Association IS CLASSED BY -->
<g>
	<line x1="174" y1="236" x2="174" y2="345" stroke="#de77ae" stroke-width="2"/>
	<text x="147" y="287" fill="#4d9221" font-family="Verdana" font-size="12">1,N</text>
	<line x1="49" y1="345" x2="174" y2="345" stroke="#de77ae" stroke-width="2"/>
	<text x="92" y="362" fill="#4d9221" font-family="Verdana" font-size="12">0,N</text>
	<g>
		<path d="M215 320 a14 14 90 0 1 14 14 V345 h-110 V334 a14 14 90 0 1 14 -14" fill="#f1b6da" stroke="#f1b6da" stroke-width="0"/>
		<path d="M229 345 v11 a14 14 90 0 1 -14 14 H133 a14 14 90 0 1 -14 -14 V345 H110" fill="#fde0ef" stroke="#fde0ef" stroke-width="0"/>
		<rect x="119" y="320" width="110" height="50" fill="none" rx="14" stroke="#de77ae" stroke-width="2"/>
		<line x1="119" y1="345" x2="229" y2="345" stroke="#de77ae" stroke-width="1"/>
		<text x="127" y="337.75" fill="#000" font-family="Verdana" font-size="12">IS CLASSED BY</text>
	</g>
</g>

<!-- Association BELONGS TO -->
<g>
	<line x1="174" y1="236" x2="309" y2="345" stroke="#de77ae" stroke-width="2"/>
	<text x="195.12" y="287" fill="#4d9221" font-family="Verdana" font-size="12">0,N</text>
	<line x1="419" y1="345" x2="309" y2="345" stroke="#de77ae" stroke-width="2"/>
	<text x="369" y="362" fill="#4d9221" font-family="Verdana" font-size="12">1,N</text>
	<g>
		<path d="M343 320 a14 14 90 0 1 14 14 V345 h-96 V334 a14 14 90 0 1 14 -14" fill="#f1b6da" stroke="#f1b6da" stroke-width="0"/>
		<path d="M357 345 v11 a14 14 90 0 1 -14 14 H275 a14 14 90 0 1 -14 -14 V345 H96" fill="#fde0ef" stroke="#fde0ef" stroke-width="0"/>
		<rect x="261" y="320" width="96" height="50" fill="none" rx="14" stroke="#de77ae" stroke-width="2"/>
		<line x1="261" y1="345" x2="357" y2="345" stroke="#de77ae" stroke-width="1"/>
		<text x="269" y="337.75" fill="#000" font-family="Verdana" font-size="12">BELONGS TO</text>
	</g>
</g>

<!-- Entity Steps -->
<g>
	<g>
		<rect x="137" y="9" width="74" height="25" fill="#b8e186" stroke="#b8e186" stroke-width="0" opacity="1"/>
		<rect x="137" y="34" width="74" height="43" fill="#e6f5d0" stroke="#e6f5d0" stroke-width="0" opacity="1"/>
		<rect x="137" y="9" width="74" height="68" fill="none" stroke="#7fbc41" stroke-width="2" opacity="1"/>
		<line x1="137" y1="34" x2="211" y2="34" stroke="#7fbc41" stroke-width="1"/>
	</g>
	<text x="157" y="26.75" fill="#000" font-family="Verdana" font-size="12">Steps</text>
	<text x="142" y="51.8" fill="#000" font-family="Verdana" font-size="12">step order</text>
	<line x1="142" y1="54" x2="205" y2="54" stroke="#000" stroke-width="1"/>
	<text x="142" y="68.8" fill="#000" font-family="Verdana" font-size="12">step</text>
</g>

<!-- Entity Ingredients -->
<g>
	<g>
		<rect x="9" y="93" width="80" height="25" fill="#b8e186" stroke="#b8e186" stroke-width="0" opacity="1"/>
		<rect x="9" y="118" width="80" height="43" fill="#e6f5d0" stroke="#e6f5d0" stroke-width="0" opacity="1"/>
		<rect x="9" y="93" width="80" height="68" fill="none" stroke="#7fbc41" stroke-width="2" opacity="1"/>
		<line x1="9" y1="118" x2="89" y2="118" stroke="#7fbc41" stroke-width="1"/>
	</g>
	<text x="14" y="110.75" fill="#000" font-family="Verdana" font-size="12">Ingredients</text>
	<text x="14" y="135.8" fill="#000" font-family="Verdana" font-size="12">name</text>
	<line x1="14" y1="138" x2="49" y2="138" stroke="#000" stroke-width="1"/>
	<text x="14" y="152.8" fill="#000" font-family="Verdana" font-size="12">img</text>
</g>

<!-- Entity Recipe -->
<g>
	<g>
		<rect x="111" y="202" width="126" height="25" fill="#b8e186" stroke="#b8e186" stroke-width="0" opacity="1"/>
		<rect x="111" y="227" width="126" height="43" fill="#e6f5d0" stroke="#e6f5d0" stroke-width="0" opacity="1"/>
		<rect x="111" y="202" width="126" height="68" fill="none" stroke="#7fbc41" stroke-width="2" opacity="1"/>
		<line x1="111" y1="227" x2="237" y2="227" stroke="#7fbc41" stroke-width="1"/>
	</g>
	<text x="154" y="219.75" fill="#000" font-family="Verdana" font-size="12">Recipe</text>
	<text x="116" y="244.8" fill="#000" font-family="Verdana" font-size="12">name</text>
	<line x1="116" y1="247" x2="151" y2="247" stroke="#000" stroke-width="1"/>
	<text x="116" y="261.8" fill="#000" font-family="Verdana" font-size="12">number of persons</text>
</g>

<!-- Entity User -->
<g>
	<g>
		<rect x="271" y="177" width="76" height="25" fill="#b8e186" stroke="#b8e186" stroke-width="0" opacity="1"/>
		<rect x="271" y="202" width="76" height="93" fill="#e6f5d0" stroke="#e6f5d0" stroke-width="0" opacity="1"/>
		<rect x="271" y="177" width="76" height="118" fill="none" stroke="#7fbc41" stroke-width="2" opacity="1"/>
		<line x1="271" y1="202" x2="347" y2="202" stroke="#7fbc41" stroke-width="1"/>
	</g>
	<text x="295" y="194.75" fill="#000" font-family="Verdana" font-size="12">User</text>
	<text x="276" y="219.8" fill="#000" font-family="Verdana" font-size="12">first name</text>
	<line x1="276" y1="222" x2="338" y2="222" stroke="#000" stroke-width="1"/>
	<text x="276" y="236.8" fill="#000" font-family="Verdana" font-size="12">last name</text>
	<text x="276" y="253.8" fill="#000" font-family="Verdana" font-size="12">e&#45;mail</text>
	<text x="276" y="270.8" fill="#000" font-family="Verdana" font-size="12">user name</text>
	<text x="276" y="287.8" fill="#000" font-family="Verdana" font-size="12">password</text>
</g>

<!-- Entity Categories -->
<g>
	<g>
		<rect x="11" y="320" width="76" height="25" fill="#b8e186" stroke="#b8e186" stroke-width="0" opacity="1"/>
		<rect x="11" y="345" width="76" height="25" fill="#e6f5d0" stroke="#e6f5d0" stroke-width="0" opacity="1"/>
		<rect x="11" y="320" width="76" height="50" fill="none" stroke="#7fbc41" stroke-width="2" opacity="1"/>
		<line x1="11" y1="345" x2="87" y2="345" stroke="#7fbc41" stroke-width="1"/>
	</g>
	<text x="17" y="337.75" fill="#000" font-family="Verdana" font-size="12">Categories</text>
	<text x="16" y="362.8" fill="#000" font-family="Verdana" font-size="12">name</text>
	<line x1="16" y1="365" x2="51" y2="365" stroke="#000" stroke-width="1"/>
</g>

<!-- Entity Menu -->
<g>
	<g>
		<rect x="396" y="320" width="46" height="25" fill="#b8e186" stroke="#b8e186" stroke-width="0" opacity="1"/>
		<rect x="396" y="345" width="46" height="25" fill="#e6f5d0" stroke="#e6f5d0" stroke-width="0" opacity="1"/>
		<rect x="396" y="320" width="46" height="50" fill="none" stroke="#7fbc41" stroke-width="2" opacity="1"/>
		<line x1="396" y1="345" x2="442" y2="345" stroke="#7fbc41" stroke-width="1"/>
	</g>
	<text x="403" y="337.75" fill="#000" font-family="Verdana" font-size="12">Menu</text>
	<text x="401" y="362.8" fill="#000" font-family="Verdana" font-size="12">name</text>
	<line x1="401" y1="365" x2="436" y2="365" stroke="#000" stroke-width="1"/>
</g>
</svg>